<?xml version="1.0" encoding="UTF-8" standalone="no"?>
<svg viewBox="0 0 50 50"
 xmlns="http://www.w3.org/2000/svg" xmlns:xlink="http://www.w3.org/1999/xlink" version="1.2" baseProfile="tiny">
<title>Qt SVG Document</title>
<desc>Generated with Qt</desc>
<defs>
</defs>
<g fill="none" stroke="black" stroke-width="1" fill-rule="evenodd" stroke-linecap="square" stroke-linejoin="bevel" >

<g fill="#ffffff" fill-opacity="1" stroke="none" transform="matrix(4.97315,0,0,6.29921,-52.6308,-889.197)"
font-family="Bitstream Vera Sans" font-size="10" font-weight="400" font-style="normal" 
opacity="0.25" >
<path vector-effect="none" fill-rule="evenodd" d="M10.583,141.16 C10.583,141.16 10.583,141.16 10.583,141.16 L20.637,141.16 C20.637,141.16 20.637,141.16 20.637,141.16 L20.637,149.097 C20.637,149.097 20.637,149.097 20.637,149.097 L10.583,149.097 C10.583,149.097 10.583,149.097 10.583,149.097 L10.583,141.16"/>
</g>

<g fill="#ffffff" fill-opacity="1" stroke="none" transform="matrix(4.97315,0,0,6.29921,-52.6308,-889.197)"
font-family="Bitstream Vera Sans" font-size="10" font-weight="400" font-style="normal" 
>
<path vector-effect="none" fill-rule="evenodd" d="M14.287,145.13 C14.287,145.13 14.287,145.13 14.287,145.13 L16.9328,145.13 C16.9328,145.13 16.9328,145.13 16.9328,145.13 L16.9328,145.395 C16.9328,145.395 16.9328,145.395 16.9328,145.395 L14.287,145.395 C14.287,145.395 14.287,145.395 14.287,145.395 L14.287,145.13"/>
</g>

<g fill="none" stroke="#000000" stroke-opacity="1" stroke-width="1" stroke-linecap="square" stroke-linejoin="bevel" transform="matrix(1,0,0,1,0,0)"
font-family="Bitstream Vera Sans" font-size="10" font-weight="400" font-style="normal" 
>
</g>
</g>
</svg>
