<?xml version="1.0" encoding="UTF-8" standalone="no"?>
<svg viewBox="0 0 50 50"
 xmlns="http://www.w3.org/2000/svg" xmlns:xlink="http://www.w3.org/1999/xlink" version="1.2" baseProfile="tiny">
<title>Qt SVG Document</title>
<desc>Generated with Qt</desc>
<defs>
</defs>
<g fill="none" stroke="black" stroke-width="1" fill-rule="evenodd" stroke-linecap="square" stroke-linejoin="bevel" >

<g fill="#ffffff" fill-opacity="1" stroke="none" transform="matrix(4.97315,0,0,6.29921,-132.897,-889.197)"
font-family="Bitstream Vera Sans" font-size="10" font-weight="400" font-style="normal" 
opacity="0.1" >
<path vector-effect="none" fill-rule="evenodd" d="M26.723,141.16 C26.723,141.16 26.723,141.16 26.723,141.16 L36.777,141.16 C36.777,141.16 36.777,141.16 36.777,141.16 L36.777,149.097 C36.777,149.097 36.777,149.097 36.777,149.097 L26.723,149.097 C26.723,149.097 26.723,149.097 26.723,149.097 L26.723,141.16"/>
</g>

<g fill="#ffffff" fill-opacity="1" stroke="none" transform="matrix(4.97315,0,0,6.29921,-132.897,-889.197)"
font-family="Bitstream Vera Sans" font-size="10" font-weight="400" font-style="normal" 
>
<path vector-effect="none" fill-rule="nonzero" d="M30.427,143.81 L30.427,146.456 L33.0728,146.456 L33.0728,143.81 L30.427,143.81 M30.6916,144.075 L32.8083,144.075 L32.8083,146.191 L30.6916,146.191 L30.6916,144.075"/>
</g>

<g fill="none" stroke="#000000" stroke-opacity="1" stroke-width="1" stroke-linecap="square" stroke-linejoin="bevel" transform="matrix(1,0,0,1,0,0)"
font-family="Bitstream Vera Sans" font-size="10" font-weight="400" font-style="normal" 
>
</g>
</g>
</svg>
