<?xml version="1.0" encoding="UTF-8" standalone="no"?>
<!DOCTYPE svg PUBLIC "-//W3C//DTD SVG 1.1//EN" "http://www.w3.org/Graphics/SVG/1.1/DTD/svg11.dtd">
<svg width="2134px" height="2134px" version="1.1" xmlns="http://www.w3.org/2000/svg" xmlns:xlink="http://www.w3.org/1999/xlink" xml:space="preserve" xmlns:serif="http://www.serif.com/" style="fill-rule:evenodd;clip-rule:evenodd;stroke-linejoin:round;stroke-miterlimit:2;">
    <g transform="matrix(-2.24187e-29,-2016.67,-2016.67,1.85389e-29,1043.92,2075)">
        <path d="M1,0.345C1,0.363 0.985,0.378 0.967,0.378L0.033,0.378C0.015,0.378 -0,0.363 -0,0.345L-0,-0.345C-0,-0.363 0.015,-0.378 0.033,-0.378L0.725,-0.378L1,-0.103L1,0.345Z" style="fill:url(#_Linear1);fill-rule:nonzero;"/>
        <clipPath id="_clip2">
            <path d="M1,0.345C1,0.363 0.985,0.378 0.967,0.378L0.033,0.378C0.015,0.378 -0,0.363 -0,0.345L-0,-0.345C-0,-0.363 0.015,-0.378 0.033,-0.378L0.725,-0.378L1,-0.103L1,0.345Z" clip-rule="nonzero"/>
        </clipPath>
        <g clip-path="url(#_clip2)">
            <g transform="matrix(-0,0.0021978,-0.0021978,0,1,-0.105243)">
                <path d="M-125,125L-15,125C-6.716,125 0,118.284 0,110L0,0L-125,125Z" style="fill:white;fill-rule:nonzero;"/>
                <path d="M-125,125L-15,125C-6.716,125 0,118.284 0,110L0,0L-125,125Z" style="fill:white;fill-rule:nonzero;"/>
            </g>
            <g transform="matrix(0,-0.00194755,-0.00194755,0,1.1927,0.538522)">
                <path d="M273.188,250.712C273.188,250.712 266.11,277.16 250.51,277.16L191.78,276.293L191.555,307.843C191.555,307.843 123.958,257.724 123.958,250.712L273.188,250.712ZM123.354,240.79C123.354,240.79 130.432,214.343 146.033,214.343L204.762,215.209L204.988,183.66C204.988,183.66 272.585,233.779 272.585,240.79L123.354,240.79Z" style="fill:white;"/>
            </g>
            <g transform="matrix(0,-0.00194755,-0.00194755,0,1.1927,0.538522)">
                <path d="M147.401,442.996L147.401,466.26L123.935,466.26L123.935,442.996L147.401,442.996ZM158.02,395.456L185.129,395.456C213.248,395.456 227.307,409.313 227.307,430.251L227.307,430.453C227.307,451.39 212.943,466.259 184.319,466.259L158.02,466.259L158.02,395.456ZM185.635,445.626C196.457,445.626 203.436,441.175 203.436,430.958L203.436,430.756C203.436,420.54 196.457,416.089 185.635,416.089L181.689,416.089L181.689,445.626L185.635,445.626ZM249.356,394.951L272.822,394.951L302.661,466.261L276.969,466.261L273.226,456.753L248.445,456.753L244.805,466.261L219.516,466.261L249.356,394.951ZM267.36,439.962L260.887,422.767L254.413,439.962L267.36,439.962ZM284.352,395.456L309.133,395.456L319.147,429.442L330.576,395.254L351.008,395.254L362.437,429.442L372.451,395.456L396.828,395.456L373.666,466.765L353.03,466.765L340.59,431.566L328.149,466.765L307.514,466.765L284.352,395.456ZM130.814,500.754L135.769,500.754L135.769,512.285C140.22,505.507 146.794,499.54 157.009,499.54C169.451,499.54 182.095,509.554 182.095,526.344L182.095,526.546C182.095,543.336 169.451,553.552 157.009,553.552C146.693,553.552 140.018,547.686 135.769,541.212L135.769,568.523L130.814,568.523L130.814,500.754ZM176.733,526.748L176.733,526.546C176.733,512.993 167.327,504.294 156.504,504.294C145.782,504.294 135.466,513.295 135.466,526.444L135.466,526.648C135.466,539.897 145.782,548.799 156.504,548.799C167.731,548.799 176.733,540.605 176.733,526.748ZM191.5,500.753L196.456,500.753L196.456,515.419C200.502,506.215 209.1,499.539 219.315,499.943L219.315,505.406L218.81,505.406C206.874,505.406 196.456,514.408 196.456,531.199L196.456,552.338L191.5,552.338L191.5,500.753ZM219.819,526.748L219.819,526.546C219.819,512.082 231.047,499.54 246.421,499.54C261.696,499.54 272.821,511.88 272.821,526.344L272.821,526.546C272.821,541.01 261.594,553.552 246.219,553.552C230.946,553.552 219.819,541.212 219.819,526.748ZM267.46,526.748L267.46,526.546C267.46,514.105 258.154,504.193 246.219,504.193C233.981,504.193 225.181,514.206 225.181,526.344L225.181,526.546C225.181,538.988 234.486,548.899 246.421,548.899C258.66,548.899 267.46,538.886 267.46,526.748ZM282.126,480.523L288.297,480.523L288.297,487.301L282.126,487.301L282.126,480.523ZM272.518,568.421L272.518,564.072C273.732,564.274 275.451,564.375 276.564,564.375C280.205,564.375 282.734,562.048 282.734,557.195L282.734,500.754L287.69,500.754L287.69,556.89C287.69,564.982 283.342,568.825 276.665,568.825C275.249,568.825 274.036,568.725 272.518,568.421ZM297.602,526.647L297.602,526.445C297.602,511.475 308.122,499.54 322.079,499.54C336.544,499.54 345.748,511.273 345.748,526.546C345.748,527.457 345.748,527.76 345.647,528.568L302.862,528.568C303.773,541.415 312.977,548.899 323.092,548.899C331.082,548.899 336.544,545.359 340.792,540.808L344.231,543.842C338.972,549.506 332.801,553.552 322.889,553.552C309.335,553.552 297.602,542.73 297.602,526.647ZM340.388,524.119C339.679,513.701 333.712,504.091 321.878,504.091C311.662,504.091 303.773,512.689 302.862,524.119L340.388,524.119ZM350.603,526.748L350.603,526.546C350.603,512.082 362.134,499.54 376.901,499.54C386.611,499.54 392.68,503.991 397.536,509.048L393.995,512.689C389.545,508.138 384.487,504.193 376.801,504.193C365.067,504.193 355.964,514.004 355.964,526.344L355.964,526.546C355.964,538.988 365.37,548.899 377.205,548.899C384.487,548.899 390.152,545.157 394.5,540.302L397.94,543.336C392.68,549.304 386.409,553.552 376.901,553.552C362.033,553.552 350.603,541.212 350.603,526.748ZM408.56,539.089L408.56,505.305L401.075,505.305L401.075,500.754L408.56,500.754L408.56,484.266L413.516,484.266L413.516,500.754L431.622,500.754L431.622,505.305L413.516,505.305L413.516,538.583C413.516,545.967 417.866,548.596 423.833,548.596C426.361,548.596 428.486,548.091 431.419,546.776L431.419,551.429C428.789,552.642 426.261,553.249 423.023,553.249C415.033,553.249 408.56,548.899 408.56,539.089Z" style="fill:white;"/>
            </g>
        </g>
    </g>
    <g transform="matrix(-2.24187e-29,-2016.67,-2016.67,1.85389e-29,1043.92,2075)">
        <path d="M1,0.345C1,0.363 0.985,0.378 0.967,0.378L0.033,0.378C0.015,0.378 -0,0.363 -0,0.345L-0,-0.345C-0,-0.363 0.015,-0.378 0.033,-0.378L0.725,-0.378L1,-0.103L1,0.345Z" style="fill:url(#_Linear3);fill-rule:nonzero;"/>
        <clipPath id="_clip4">
            <path d="M1,0.345C1,0.363 0.985,0.378 0.967,0.378L0.033,0.378C0.015,0.378 -0,0.363 -0,0.345L-0,-0.345C-0,-0.363 0.015,-0.378 0.033,-0.378L0.725,-0.378L1,-0.103L1,0.345Z" clip-rule="nonzero"/>
        </clipPath>
        <g clip-path="url(#_clip4)">
            <g transform="matrix(-0,0.0021978,-0.0021978,0,1,-0.105243)">
                <g>
                    <path d="M-125,125L-15,125C-6.716,125 0,118.284 0,110L0,0L-125,125Z" style="fill:white;fill-rule:nonzero;"/>
                </g>
                <path d="M-125,125L-15,125C-6.716,125 0,118.284 0,110L0,0L-125,125Z" style="fill:white;fill-rule:nonzero;"/>
            </g>
            <g transform="matrix(0,-0.00194755,-0.00194755,0,1.1927,0.538522)">
                <path d="M273.188,250.712C273.188,250.712 266.11,277.16 250.51,277.16L191.78,276.293L191.555,307.843C191.555,307.843 123.958,257.724 123.958,250.712L273.188,250.712ZM123.354,240.79C123.354,240.79 130.432,214.343 146.033,214.343L204.762,215.209L204.988,183.66C204.988,183.66 272.585,233.779 272.585,240.79L123.354,240.79Z" style="fill:white;"/>
            </g>
            <g transform="matrix(0,-0.00194755,-0.00194755,0,1.1927,0.538522)">
                <path d="M147.401,442.996L147.401,466.26L123.935,466.26L123.935,442.996L147.401,442.996ZM158.02,395.456L185.129,395.456C213.248,395.456 227.307,409.313 227.307,430.251L227.307,430.453C227.307,451.39 212.943,466.259 184.319,466.259L158.02,466.259L158.02,395.456ZM185.635,445.626C196.457,445.626 203.436,441.175 203.436,430.958L203.436,430.756C203.436,420.54 196.457,416.089 185.635,416.089L181.689,416.089L181.689,445.626L185.635,445.626ZM249.356,394.951L272.822,394.951L302.661,466.261L276.969,466.261L273.226,456.753L248.445,456.753L244.805,466.261L219.516,466.261L249.356,394.951ZM267.36,439.962L260.887,422.767L254.413,439.962L267.36,439.962ZM284.352,395.456L309.133,395.456L319.147,429.442L330.576,395.254L351.008,395.254L362.437,429.442L372.451,395.456L396.828,395.456L373.666,466.765L353.03,466.765L340.59,431.566L328.149,466.765L307.514,466.765L284.352,395.456ZM130.814,500.754L135.769,500.754L135.769,512.285C140.22,505.507 146.794,499.54 157.009,499.54C169.451,499.54 182.095,509.554 182.095,526.344L182.095,526.546C182.095,543.336 169.451,553.552 157.009,553.552C146.693,553.552 140.018,547.686 135.769,541.212L135.769,568.523L130.814,568.523L130.814,500.754ZM176.733,526.748L176.733,526.546C176.733,512.993 167.327,504.294 156.504,504.294C145.782,504.294 135.466,513.295 135.466,526.444L135.466,526.648C135.466,539.897 145.782,548.799 156.504,548.799C167.731,548.799 176.733,540.605 176.733,526.748ZM191.5,500.753L196.456,500.753L196.456,515.419C200.502,506.215 209.1,499.539 219.315,499.943L219.315,505.406L218.81,505.406C206.874,505.406 196.456,514.408 196.456,531.199L196.456,552.338L191.5,552.338L191.5,500.753ZM219.819,526.748L219.819,526.546C219.819,512.082 231.047,499.54 246.421,499.54C261.696,499.54 272.821,511.88 272.821,526.344L272.821,526.546C272.821,541.01 261.594,553.552 246.219,553.552C230.946,553.552 219.819,541.212 219.819,526.748ZM267.46,526.748L267.46,526.546C267.46,514.105 258.154,504.193 246.219,504.193C233.981,504.193 225.181,514.206 225.181,526.344L225.181,526.546C225.181,538.988 234.486,548.899 246.421,548.899C258.66,548.899 267.46,538.886 267.46,526.748ZM282.126,480.523L288.297,480.523L288.297,487.301L282.126,487.301L282.126,480.523ZM272.518,568.421L272.518,564.072C273.732,564.274 275.451,564.375 276.564,564.375C280.205,564.375 282.734,562.048 282.734,557.195L282.734,500.754L287.69,500.754L287.69,556.89C287.69,564.982 283.342,568.825 276.665,568.825C275.249,568.825 274.036,568.725 272.518,568.421ZM297.602,526.647L297.602,526.445C297.602,511.475 308.122,499.54 322.079,499.54C336.544,499.54 345.748,511.273 345.748,526.546C345.748,527.457 345.748,527.76 345.647,528.568L302.862,528.568C303.773,541.415 312.977,548.899 323.092,548.899C331.082,548.899 336.544,545.359 340.792,540.808L344.231,543.842C338.972,549.506 332.801,553.552 322.889,553.552C309.335,553.552 297.602,542.73 297.602,526.647ZM340.388,524.119C339.679,513.701 333.712,504.091 321.878,504.091C311.662,504.091 303.773,512.689 302.862,524.119L340.388,524.119ZM350.603,526.748L350.603,526.546C350.603,512.082 362.134,499.54 376.901,499.54C386.611,499.54 392.68,503.991 397.536,509.048L393.995,512.689C389.545,508.138 384.487,504.193 376.801,504.193C365.067,504.193 355.964,514.004 355.964,526.344L355.964,526.546C355.964,538.988 365.37,548.899 377.205,548.899C384.487,548.899 390.152,545.157 394.5,540.302L397.94,543.336C392.68,549.304 386.409,553.552 376.901,553.552C362.033,553.552 350.603,541.212 350.603,526.748ZM408.56,539.089L408.56,505.305L401.075,505.305L401.075,500.754L408.56,500.754L408.56,484.266L413.516,484.266L413.516,500.754L431.622,500.754L431.622,505.305L413.516,505.305L413.516,538.583C413.516,545.967 417.866,548.596 423.833,548.596C426.361,548.596 428.486,548.091 431.419,546.776L431.419,551.429C428.789,552.642 426.261,553.249 423.023,553.249C415.033,553.249 408.56,548.899 408.56,539.089Z" style="fill:white;"/>
            </g>
        </g>
    </g>
    <defs>
        <linearGradient id="_Linear1" x1="0" y1="0" x2="1" y2="0" gradientUnits="userSpaceOnUse" gradientTransform="matrix(1,0,0,1,0,0)"><stop offset="0" style="stop-color:rgb(255,90,0);stop-opacity:1"/><stop offset="1" style="stop-color:rgb(255,118,43);stop-opacity:1"/><stop offset="1" style="stop-color:rgb(255,118,43);stop-opacity:1"/></linearGradient>
        <linearGradient id="_Linear3" x1="0" y1="0" x2="1" y2="0" gradientUnits="userSpaceOnUse" gradientTransform="matrix(1,0,0,1,0,0)"><stop offset="0" style="stop-color:rgb(255,90,0);stop-opacity:1"/><stop offset="1" style="stop-color:rgb(255,118,43);stop-opacity:1"/><stop offset="1" style="stop-color:rgb(255,118,43);stop-opacity:1"/></linearGradient>
    </defs>
</svg>
